<svg width="298" height="298" viewBox="0 0 298 298" fill="none" xmlns="http://www.w3.org/2000/svg">
<g clip-path="url(#clip0_354_786)">
<path d="M148.7 296.9C230.549 296.9 296.9 230.549 296.9 148.7C296.9 66.8514 230.549 0.5 148.7 0.5C66.8514 0.5 0.5 66.8514 0.5 148.7C0.5 230.549 66.8514 296.9 148.7 296.9Z" fill="#43978E" stroke="#43978E" stroke-miterlimit="10"/>
<path d="M235.6 200.3C241.289 200.3 245.9 195.689 245.9 190C245.9 184.311 241.289 179.7 235.6 179.7C229.912 179.7 225.3 184.311 225.3 190C225.3 195.689 229.912 200.3 235.6 200.3Z" fill="white"/>
<path d="M88.9999 151.1C88.9999 160.8 91.1999 168.2 95.5999 173.1C99.9999 178.1 105.7 180.6 112.6 180.6C119.5 180.6 123.6 178.7 127.4 174.9C131.2 171 134.3 165 136.7 156.8L142.4 137.9C145.1 128.6 149.2 121.4 154.6 116.1C160 110.8 167.2 108.2 176.3 108.2C185.4 108.2 186.7 109.2 191.2 111.3C195.7 113.4 199.3 116.4 202.4 120.3C205.4 124.2 207.8 128.9 209.5 134.3C211.2 139.7 212 145.8 212 152.6C212 159.4 211.5 163.8 210.6 168.8C209.7 173.8 208.4 178.1 206.7 181.8C205 185.5 203.2 188.3 201.2 190.4C199.2 192.4 197.1 193.4 194.9 193.4C192.7 193.4 191.1 192.9 189.7 191.9C188.3 190.9 187.1 189.6 186.2 188C189.1 184.2 191.6 179.3 193.8 173.4C196 167.4 197.1 160.7 197.1 153.3C197.1 145.9 195.3 138.1 191.7 133.2C188.1 128.4 183 125.9 176.5 125.9C170 125.9 167.3 127.6 164.1 131.1C160.9 134.6 158.2 140.4 155.8 148.5L151.9 161.7C148.6 173.1 143.9 182.1 137.9 188.7C131.9 195.3 123.5 198.6 112.8 198.6C102.1 198.6 92.0999 194.5 84.9999 186.2C77.8999 177.9 74.3999 166.2 74.3999 151C74.3999 135.8 74.9999 138.3 76.0999 132.9C77.1999 127.5 78.7999 122.8 80.6999 119C82.5999 115.1 84.5999 112.2 86.8999 110.1C89.0999 108 91.3999 107 93.4999 107C95.5999 107 97.9999 107.8 99.6999 109.3C101.4 110.8 102.5 112.6 103.3 114.6C101.7 116.2 100.1 118.1 98.3999 120.4C96.6999 122.7 95.1999 125.4 93.7999 128.4C92.3999 131.4 91.2999 134.8 90.3999 138.6C89.4999 142.4 89.0999 146.5 89.0999 151L88.9999 151.1Z" fill="white" stroke="white" stroke-width="9" stroke-miterlimit="10"/>
</g>
<defs>
<clipPath id="clip0_354_786">
<rect width="297.5" height="297.5" fill="white"/>
</clipPath>
</defs>
</svg>
