<svg width="14" height="12" viewBox="0 0 14 12" fill="none" xmlns="http://www.w3.org/2000/svg">
<path d="M2.12508 0.75H11.8751C11.9831 0.787881 12.081 0.849983 12.1613 0.931548C12.2416 1.01311 12.3022 1.11198 12.3384 1.22057C12.3746 1.32916 12.3854 1.44459 12.3701 1.55802C12.3548 1.67146 12.3138 1.77989 12.2501 1.875L8.50008 6V11.25L5.50008 9V6L1.75008 1.875C1.6864 1.77989 1.64533 1.67146 1.63003 1.55802C1.61472 1.44459 1.62558 1.32916 1.66178 1.22057C1.69797 1.11198 1.75855 1.01311 1.83885 0.931548C1.91916 0.849983 2.01707 0.787881 2.12508 0.75Z" stroke="black" stroke-width="1.5" stroke-linecap="round" stroke-linejoin="round"/>
</svg>
