<svg width="17" height="22" viewBox="0 0 17 22" fill="none" xmlns="http://www.w3.org/2000/svg">
<path d="M8.50001 2.16659C10.7917 2.16659 12.6667 4.04158 12.6667 6.33325C12.6667 8.52075 10.4792 12.0624 8.50001 14.5624C6.52084 11.9583 4.33334 8.52075 4.33334 6.33325C4.33334 4.04158 6.20834 2.16659 8.50001 2.16659ZM8.50001 0.083252C5.06251 0.083252 2.25001 2.89575 2.25001 6.33325C2.25001 11.0208 8.50001 17.7916 8.50001 17.7916C8.50001 17.7916 14.75 10.9166 14.75 6.33325C14.75 2.89575 11.9375 0.083252 8.50001 0.083252ZM8.50001 4.24992C7.35417 4.24992 6.41667 5.18742 6.41667 6.33325C6.41667 7.47908 7.35417 8.41658 8.50001 8.41658C9.64584 8.41658 10.5833 7.47908 10.5833 6.33325C10.5833 5.18742 9.64584 4.24992 8.50001 4.24992ZM16.8333 17.7916C16.8333 20.0833 13.0833 21.9583 8.50001 21.9583C3.91667 21.9583 0.166672 20.0833 0.166672 17.7916C0.166672 16.4374 1.41667 15.2916 3.39584 14.4583L4.02084 15.3958C2.97917 15.9166 2.25001 16.5416 2.25001 17.2708C2.25001 18.7291 5.06251 19.8749 8.50001 19.8749C11.9375 19.8749 14.75 18.7291 14.75 17.2708C14.75 16.5416 14.0208 15.9166 12.875 15.3958L13.5 14.4583C15.5833 15.2916 16.8333 16.4374 16.8333 17.7916Z" fill="black"/>
</svg>
