<svg width="22" height="20" viewBox="0 0 22 20" fill="none" xmlns="http://www.w3.org/2000/svg">
<path d="M11 20C10.7977 19.999 10.5987 19.9475 10.4205 19.85C9.99821 19.6001 3.55189e-06 13.8221 3.55189e-06 6.40462C-0.00135401 5.10451 0.386474 3.83483 1.11183 2.76468C1.8372 1.69454 2.86566 0.874716 4.06026 0.414411C5.25485 -0.0458948 6.55888 -0.124839 7.79866 0.188093C9.03843 0.501025 10.1551 1.19098 11 2.16607C11.8449 1.19098 12.9616 0.501025 14.2013 0.188093C15.4411 -0.124839 16.7451 -0.0458948 17.9397 0.414411C19.1343 0.874716 20.1628 1.69454 20.8882 2.76468C21.6135 3.83483 22.0014 5.10451 22 6.40462C22 13.8221 12.0018 19.6001 11.5795 19.85C11.4013 19.9475 11.2023 19.999 11 20ZM6.28572 2.40598C5.24379 2.40598 4.24455 2.82727 3.5078 3.57716C2.77105 4.32705 2.35715 5.34412 2.35715 6.40462C2.35715 11.5229 8.97679 16.1213 11 17.4009C13.0232 16.1213 19.6429 11.5229 19.6429 6.40462C19.642 5.48109 19.327 4.58635 18.7515 3.87236C18.176 3.15837 17.3754 2.66916 16.4857 2.48781C15.596 2.30647 14.6721 2.44417 13.8708 2.87753C13.0696 3.31089 12.4404 4.01319 12.0902 4.86515C12.0014 5.08517 11.8503 5.27335 11.6562 5.40579C11.4621 5.53822 11.2337 5.60893 11 5.60893C10.7663 5.60893 10.5379 5.53822 10.3438 5.40579C10.1497 5.27335 9.99862 5.08517 9.90982 4.86515C9.61251 4.13631 9.10948 3.51362 8.46436 3.07587C7.81924 2.63812 7.06105 2.405 6.28572 2.40598Z" fill="black"/>
</svg>
